# xmcd
#
# Track frame offsets:
#	150
#	22941
#	40068
#	52862
#	69776
#	93482
#	111132
#	128710
#	149568
#
# Disc length: 2281 seconds
#
# Revision: 0
# Processed by: cddbd v1.5.2PL0 Copyright (c) Steve Scherf et al.
# Submitted via: audiograbber 1.83.01
#
DISCID=6e08e709
DTITLE=Robert Cray - False Accusations
DYEAR=1985
DGENRE=Blues
TTITLE0=Porch Light
TTITLE1=Change Of Heart, Change Of Mind 
TTITLE2=She's Gone
TTITLE3=Playin' In The Dirt
TTITLE4=I've Slipped Her Mind
TTITLE5=False Accusations
TTITLE6=The Last Time (I Get Burned Like This)
TTITLE7=Payin' For It Now
TTITLE8=Sonny
EXTD=
EXTT0=
EXTT1=
EXTT2=
EXTT3=
EXTT4=
EXTT5=
EXTT6=
EXTT7=
EXTT8=
PLAYORDER=
